<svg width="100" height="100" viewBox="0 0 100 100" fill="none" xmlns="http://www.w3.org/2000/svg">
<rect x="23" y="16.8201" width="54" height="68.1798" rx="6" fill="#AD8B64"/>
<rect x="28.0625" y="21.8091" width="43.875" height="58.2022" rx="2" fill="#F5F8FC"/>
<rect x="39.5449" y="15.4453" width="21.1382" height="8.89087" rx="3" fill="#95A6BD"/>
<path d="M52.3887 14.7045C52.3887 15.8957 51.3969 16.9091 50.114 16.9091C48.8311 16.9091 47.8393 15.8957 47.8393 14.7045C47.8393 13.5134 48.8311 12.5 50.114 12.5C51.3969 12.5 52.3887 13.5134 52.3887 14.7045Z" stroke="#95A6BD" stroke-width="3"/>
<path d="M43.087 36.9863C43.087 34.5186 41.0538 32.4863 38.5849 32.4863C36.0978 32.4863 34.0828 34.5186 34.0828 36.9863C34.0828 39.4722 36.0978 41.4863 38.5849 41.4863C41.0538 41.4863 43.087 39.4722 43.087 36.9863ZM38.0584 39.3815C37.9495 39.4904 37.7498 39.4904 37.6409 39.3815L35.7529 37.4944C35.644 37.3855 35.644 37.1859 35.7529 37.0771L36.1705 36.6779C36.2794 36.5508 36.4609 36.5508 36.5698 36.6779L37.8588 37.948L40.5818 35.2262C40.6907 35.0992 40.8723 35.0992 40.9812 35.2262L41.3987 35.6254C41.5076 35.7343 41.5076 35.9339 41.3987 36.0428L38.0584 39.3815Z" fill="#5E718A"/>
<rect x="46.2971" y="33.2273" width="19.8482" height="2.96362" rx="1.48181" fill="#5E718A"/>
<rect x="46.2971" y="37.6726" width="9.92411" height="2.96362" rx="1.48181" fill="#5E718A"/>
<path d="M43.0828 50.3225C43.0828 47.8548 41.0505 45.8225 38.5828 45.8225C36.0969 45.8225 34.0828 47.8548 34.0828 50.3225C34.0828 52.8084 36.0969 54.8225 38.5828 54.8225C41.0505 54.8225 43.0828 52.8084 43.0828 50.3225ZM38.0566 52.7177C37.9477 52.8265 37.7481 52.8265 37.6392 52.7177L35.7521 50.8306C35.6433 50.7217 35.6433 50.5221 35.7521 50.4132L36.1695 50.014C36.2783 49.887 36.4598 49.887 36.5687 50.014L37.857 51.2842L40.5787 48.5624C40.6876 48.4354 40.8691 48.4354 40.9779 48.5624L41.3953 48.9616C41.5041 49.0705 41.5041 49.2701 41.3953 49.379L38.0566 52.7177Z" fill="#5E718A"/>
<rect x="46.2971" y="46.5635" width="19.8482" height="2.96362" rx="1.48181" fill="#5E718A"/>
<rect x="46.2971" y="51.0088" width="9.92411" height="2.96363" rx="1.48181" fill="#5E718A"/>
<path d="M43.0828 63.6587C43.0828 61.1909 41.0505 59.1587 38.5828 59.1587C36.0969 59.1587 34.0828 61.1909 34.0828 63.6587C34.0828 66.1446 36.0969 68.1587 38.5828 68.1587C41.0505 68.1587 43.0828 66.1446 43.0828 63.6587ZM38.0566 66.0539C37.9477 66.1627 37.7481 66.1627 37.6392 66.0539L35.7521 64.1668C35.6433 64.0579 35.6433 63.8583 35.7521 63.7494L36.1695 63.3502C36.2783 63.2232 36.4598 63.2232 36.5687 63.3502L37.857 64.6204L40.5787 61.8986C40.6876 61.7716 40.8691 61.7716 40.9779 61.8986L41.3953 62.2978C41.5041 62.4067 41.5041 62.6063 41.3953 62.7151L38.0566 66.0539Z" fill="#5E718A"/>
<rect x="46.2971" y="59.8997" width="19.8482" height="2.96362" rx="1.48181" fill="#5E718A"/>
<rect x="46.2971" y="64.345" width="9.92411" height="2.96362" rx="1.48181" fill="#5E718A"/>
<path d="M72.0515 70.865H66.0203C64.2253 70.865 62.7703 72.3201 62.7703 74.115V80.0111L72.0515 70.865Z" fill="#D4DCE7"/>
<path d="M72.0515 70.8654V78.0115C72.0515 79.116 71.1561 80.0115 70.0515 80.0115H62.7703L72.0515 70.8654Z" fill="#AD8B64"/>
</svg>
